<svg width="32" height="42" viewBox="0 0 32 42" fill="none" xmlns="http://www.w3.org/2000/svg">
<path d="M16 26.25C20.4016 26.25 23.9688 22.725 23.9688 18.375V7.875C23.9688 3.525 20.4016 0 16 0C11.5984 0 8.03125 3.525 8.03125 7.875V18.375C8.03125 22.725 11.5984 26.25 16 26.25ZM31.4688 18.2812C31.4688 18.075 31.3 17.9062 31.0938 17.9062H28.2812C28.075 17.9062 27.9062 18.075 27.9062 18.2812C27.9062 24.8578 22.5766 30.1875 16 30.1875C9.42344 30.1875 4.09375 24.8578 4.09375 18.2812C4.09375 18.075 3.925 17.9062 3.71875 17.9062H0.90625C0.7 17.9062 0.53125 18.075 0.53125 18.2812C0.53125 26.1891 6.46563 32.7141 14.125 33.6375V38.4375H7.31406C6.67188 38.4375 6.15625 39.1078 6.15625 39.9375V41.625C6.15625 41.8312 6.2875 42 6.44688 42H25.5531C25.7125 42 25.8438 41.8312 25.8438 41.625V39.9375C25.8438 39.1078 25.3281 38.4375 24.6859 38.4375H17.6875V33.6609C25.4359 32.8172 31.4688 26.2547 31.4688 18.2812Z" fill="#676666"/>
</svg>
