<svg width="26" height="26" viewBox="0 0 26 26" fill="none" xmlns="http://www.w3.org/2000/svg">
<path d="M18.2292 16.0417H17.0771L16.6688 15.6479C18.1473 13.933 18.9599 11.7435 18.9583 9.47917C18.9583 7.60437 18.4024 5.77167 17.3608 4.21283C16.3192 2.65399 14.8388 1.43902 13.1067 0.721563C11.3746 0.00410718 9.46866 -0.183612 7.62988 0.182144C5.7911 0.5479 4.10207 1.4507 2.77639 2.77639C1.4507 4.10207 0.5479 5.7911 0.182144 7.62988C-0.183612 9.46866 0.00410718 11.3746 0.721563 13.1067C1.43902 14.8388 2.65399 16.3192 4.21283 17.3608C5.77167 18.4024 7.60437 18.9583 9.47917 18.9583C11.8271 18.9583 13.9854 18.0979 15.6479 16.6688L16.0417 17.0771V18.2292L23.3333 25.5063L25.5063 23.3333L18.2292 16.0417ZM9.47917 16.0417C5.84792 16.0417 2.91667 13.1104 2.91667 9.47917C2.91667 5.84792 5.84792 2.91667 9.47917 2.91667C13.1104 2.91667 16.0417 5.84792 16.0417 9.47917C16.0417 13.1104 13.1104 16.0417 9.47917 16.0417Z" fill="#676666"/>
</svg>
