<svg width="32" height="29" viewBox="0 0 32 29" fill="none" xmlns="http://www.w3.org/2000/svg">
<path d="M30.9357 2.69675L21.4357 27.2384C21.3417 27.4815 21.1892 27.6976 20.9917 27.8676C20.7941 28.0376 20.5577 28.1562 20.3034 28.2129C20.049 28.2696 19.7846 28.2626 19.5336 28.1926C19.2825 28.1226 19.0527 27.9917 18.8644 27.8116L13.5095 22.6895L10.2257 25.9717C10.1149 26.0822 9.97383 26.1574 9.82035 26.1877C9.66686 26.2181 9.50782 26.2022 9.36332 26.1423C9.21881 26.0823 9.09531 25.9809 9.00842 25.8508C8.92153 25.7206 8.87514 25.5677 8.8751 25.4112V18.2562L0.656019 10.3949C0.452091 10.1998 0.304018 9.95375 0.227129 9.6822C0.15024 9.41065 0.14733 9.12348 0.218702 8.85043C0.290073 8.57738 0.43313 8.32837 0.633063 8.12918C0.832997 7.92998 1.08254 7.78785 1.35585 7.71749L29.0642 0.592495C29.3459 0.520333 29.642 0.527142 29.9201 0.612177C30.1982 0.697213 30.4475 0.857188 30.6406 1.07456C30.8338 1.29193 30.9634 1.5583 31.0151 1.84445C31.0669 2.1306 31.0389 2.42548 30.9341 2.69675H30.9357ZM27.0834 4.50174L9.71743 15.8242L12.4645 18.4525L27.0834 4.50174Z" fill="white"/>
</svg>
