<svg width="40" height="40" viewBox="0 0 40 40" fill="none" xmlns="http://www.w3.org/2000/svg">
<path d="M20 40C31.028 40 40 31.028 40 20C40 8.972 31.028 0 20 0C8.972 0 0 8.972 0 20C0 31.028 8.972 40 20 40ZM26.986 14C27.3848 13.9898 27.7815 14.0596 28.1529 14.2052C28.5243 14.3508 28.8627 14.5693 29.1483 14.8477C29.4339 15.1262 29.6609 15.4591 29.8158 15.8267C29.9707 16.1942 30.0504 16.5891 30.0503 16.988C30.0502 17.3869 29.9702 17.7818 29.815 18.1492C29.6598 18.5167 29.4327 18.8494 29.1469 19.1277C28.8611 19.406 28.5225 19.6243 28.151 19.7696C27.7796 19.915 27.3828 19.9845 26.984 19.974C26.2052 19.9536 25.4651 19.6298 24.9216 19.0716C24.3781 18.5135 24.074 17.7651 24.0743 16.986C24.0746 16.2069 24.3791 15.4588 24.923 14.901C25.4669 14.3432 26.2072 14.0199 26.986 14ZM18.384 27.838C19.4507 28.052 20.5493 28.052 21.616 27.838C22.122 27.734 22.626 27.576 23.116 27.372C23.584 27.172 24.044 26.924 24.474 26.636C24.89 26.352 25.288 26.024 25.656 25.658C26.022 25.294 26.35 24.896 26.634 24.474L29.95 26.708C29.0879 27.9858 27.9887 29.0863 26.712 29.95C25.4113 30.8278 23.9511 31.442 22.414 31.758C20.8205 32.0781 19.1792 32.0774 17.586 31.756C16.0485 31.4446 14.5882 30.8307 13.29 29.95C12.0133 29.0842 10.913 27.9832 10.048 26.706L13.364 24.472C13.65 24.894 13.978 25.292 14.34 25.652C15.4443 26.7618 16.8507 27.522 18.384 27.838ZM13 14C13.3941 14.0001 13.7843 14.0779 14.1484 14.2288C14.5124 14.3798 14.8432 14.6009 15.1217 14.8797C15.4003 15.1584 15.6213 15.4893 15.7719 15.8535C15.9226 16.2176 16.0001 16.6079 16 17.002C15.9999 17.3961 15.9221 17.7863 15.7712 18.1504C15.6202 18.5144 15.3991 18.8452 15.1203 19.1237C14.8416 19.4023 14.5107 19.6233 14.1465 19.7739C13.7824 19.9246 13.3921 20.0021 12.998 20.002C12.2021 20.0017 11.4389 19.6853 10.8763 19.1223C10.3137 18.5593 9.99774 17.7959 9.998 17C9.99827 16.2041 10.3147 15.4409 10.8777 14.8783C11.4407 14.3157 12.2041 13.9997 13 14Z" fill="#676666"/>
</svg>
