<svg width="31" height="29" viewBox="0 0 31 29" fill="none" xmlns="http://www.w3.org/2000/svg">
<path d="M13.9583 28.375V25.2917H26.2916V14.3458C26.2916 11.3396 25.2448 8.78967 23.1512 6.69608C21.0576 4.6025 18.5072 3.55519 15.4999 3.55417C12.4926 3.55314 9.94273 4.60044 7.85017 6.69608C5.75761 8.79172 4.71031 11.3416 4.70825 14.3458V23.75H0.083252V14.924H1.62492L1.74054 12.8812C1.9461 11.134 2.45382 9.51528 3.26371 8.025C4.0736 6.53472 5.08853 5.23715 6.3085 4.13229C7.52847 3.02743 8.92831 2.16667 10.508 1.55C12.0877 0.933333 13.7517 0.625 15.4999 0.625C17.2482 0.625 18.9055 0.933333 20.4718 1.55C22.0381 2.16667 23.4385 3.02126 24.6728 4.11379C25.9072 5.20632 26.9221 6.49721 27.7176 7.98646C28.5131 9.47571 29.027 11.0945 29.2593 12.8427L29.3749 14.924H30.9166V23.75H29.3749V28.375H13.9583ZM10.8749 17.5833C10.4381 17.5833 10.0722 17.4353 9.77725 17.1393C9.48228 16.8433 9.33428 16.4774 9.33325 16.0417C9.33222 15.6059 9.48022 15.24 9.77725 14.944C10.0743 14.648 10.4402 14.5 10.8749 14.5C11.3097 14.5 11.6761 14.648 11.9741 14.944C12.2722 15.24 12.4197 15.6059 12.4166 16.0417C12.4135 16.4774 12.2655 16.8438 11.9726 17.1409C11.6797 17.4379 11.3138 17.5854 10.8749 17.5833ZM20.1249 17.5833C19.6881 17.5833 19.3222 17.4353 19.0273 17.1393C18.7323 16.8433 18.5843 16.4774 18.5833 16.0417C18.5822 15.6059 18.7302 15.24 19.0273 14.944C19.3243 14.648 19.6902 14.5 20.1249 14.5C20.5597 14.5 20.9261 14.648 21.2241 14.944C21.5222 15.24 21.6697 15.6059 21.6666 16.0417C21.6635 16.4774 21.5155 16.8438 21.2226 17.1409C20.9297 17.4379 20.5638 17.5854 20.1249 17.5833ZM6.28846 15.1937C6.1086 12.4701 6.93082 10.1319 8.75513 8.17917C10.5794 6.22639 12.8534 5.25 15.577 5.25C17.8638 5.25 19.8747 5.97561 21.6095 7.42683C23.3444 8.87806 24.3912 10.7352 24.7499 12.9984C22.4117 12.9717 20.2601 12.3417 18.295 11.1083C16.3298 9.875 14.82 8.20486 13.7655 6.09792C13.3544 8.15347 12.4875 9.98446 11.1648 11.5909C9.842 13.1973 8.21657 14.3982 6.28846 15.1937Z" fill="white"/>
</svg>
