<svg width="32" height="32" viewBox="0 0 32 32" fill="none" xmlns="http://www.w3.org/2000/svg">
<rect width="32" height="32" rx="7" fill="#6ABB77"/>
<rect width="32" height="32" rx="7" fill="#6ABB77"/>
<path d="M23.0516 13.6231C22.8282 13.1098 22.506 12.6446 22.1032 12.2537C21.7 11.8615 21.2247 11.5499 20.703 11.3358C20.1621 11.1128 19.5819 10.9987 18.9961 11C18.1744 11 17.3726 11.2233 16.6759 11.645C16.5092 11.7459 16.3508 11.8567 16.2008 11.9775C16.0508 11.8567 15.8925 11.7459 15.7258 11.645C15.029 11.2233 14.2273 11 13.4055 11C12.8138 11 12.2404 11.1125 11.6986 11.3358C11.1752 11.5508 10.7035 11.86 10.2985 12.2537C9.8951 12.6442 9.57286 13.1095 9.35004 13.6231C9.11835 14.1573 9 14.7246 9 15.3084C9 15.8592 9.11335 16.4331 9.33837 17.0169C9.52673 17.5048 9.79676 18.0109 10.1418 18.522C10.6885 19.3307 11.4403 20.1742 12.3737 21.0293C13.9206 22.4467 15.4524 23.4258 15.5174 23.4655L15.9125 23.7169C16.0875 23.8277 16.3125 23.8277 16.4875 23.7169L16.8826 23.4655C16.9476 23.4242 18.4778 22.4467 20.0263 21.0293C20.9597 20.1742 21.7115 19.3307 22.2582 18.522C22.6032 18.0109 22.8749 17.5048 23.0616 17.0169C23.2866 16.4331 23.4 15.8592 23.4 15.3084C23.4017 14.7246 23.2833 14.1573 23.0516 13.6231Z" fill="white"/>
</svg>
